<svg width="49" height="48" viewBox="0 0 49 48" fill="none" xmlns="http://www.w3.org/2000/svg">
<path d="M42.75 17.13C42.7557 17.0869 42.7557 17.0431 42.75 17C42.75 8.73 35.63 2 26.87 2H22.63C13.87 2 6.75 8.73 6.75 17C6.74434 17.0431 6.74434 17.0869 6.75 17.13C5.89187 17.3516 5.13163 17.8519 4.58864 18.5523C4.04565 19.2528 3.75066 20.1137 3.75 21V26C3.75 27.0609 4.17143 28.0783 4.92157 28.8284C5.67172 29.5786 6.68913 30 7.75 30H9.75C9.75 33.713 11.225 37.274 13.8505 39.8995C16.476 42.525 20.037 44 23.75 44H25.75C32.36 44 37.58 39.52 38.69 35.34C39.8879 34.8252 40.9393 34.0211 41.75 33C42.457 32.0863 42.8436 30.9653 42.85 29.81C43.6797 29.5727 44.4104 29.0735 44.933 28.3868C45.4557 27.7002 45.7423 26.8629 45.75 26V21C45.7493 20.1137 45.4544 19.2528 44.9114 18.5523C44.3684 17.8519 43.6081 17.3516 42.75 17.13ZM35.75 30.82C35.7519 31.7123 35.4423 32.5772 34.8745 33.2655C34.3067 33.9538 33.5164 34.4223 32.64 34.59C31.6158 34.7787 30.5802 34.8989 29.54 34.95C29.3273 34.3806 28.9466 33.8892 28.4483 33.541C27.9501 33.1928 27.3578 33.0041 26.75 33H22.88C22.1705 32.9867 21.4781 33.218 20.919 33.6551C20.3599 34.0921 19.9683 34.7083 19.81 35.4C19.721 35.8359 19.7301 36.2862 19.8366 36.7182C19.9431 37.1501 20.1444 37.553 20.4258 37.8976C20.7072 38.2422 21.0618 38.5199 21.4637 38.7106C21.8657 38.9012 22.3051 39.0001 22.75 39H26.75C27.3689 38.9983 27.9722 38.8051 28.4771 38.4471C28.9819 38.089 29.3637 37.5835 29.57 37C31.2453 36.9785 32.9167 36.8314 34.57 36.56C33.5476 37.9362 32.2176 39.0544 30.6862 39.8253C29.1548 40.5962 27.4645 40.9985 25.75 41H23.75C20.8326 41 18.0347 39.8411 15.9718 37.7782C13.9089 35.7153 12.75 32.9174 12.75 30V21H15.75C15.75 21 18.4 21 18.75 17.67C19.4066 18.6915 20.3092 19.5317 21.375 20.1135C22.4408 20.6954 23.6357 21.0002 24.85 21H35.75V30.82ZM39.57 17C39.0977 14.2059 37.6518 11.669 35.4885 9.83877C33.3251 8.00849 30.5838 7.00287 27.75 7H21.75C18.9162 7.00287 16.1749 8.00849 14.0115 9.83877C11.8482 11.669 10.4023 14.2059 9.93 17H8.75C8.75 9.83 14.97 4 22.63 4H26.87C34.53 4 40.75 9.83 40.75 17H39.57Z" fill="#F4A426"/>
</svg>
