<svg width="49" height="48" viewBox="0 0 49 48" fill="none" xmlns="http://www.w3.org/2000/svg">
<path d="M42.1975 18.5023H39.2275L26.44 8.9248C26.5534 8.57872 26.5832 8.21068 26.527 7.85086C26.4707 7.49104 26.3299 7.14967 26.1163 6.85475C25.9026 6.55984 25.622 6.31976 25.2976 6.15421C24.9732 5.98866 24.6142 5.90234 24.25 5.90234C23.8858 5.90234 23.5268 5.98866 23.2024 6.15421C22.878 6.31976 22.5975 6.55984 22.3838 6.85475C22.1701 7.14967 22.0294 7.49104 21.9731 7.85086C21.9168 8.21068 21.9466 8.57872 22.06 8.9248L9.2725 18.5023H6.3025C5.49237 18.5047 4.71622 18.8281 4.14408 19.4017C3.57193 19.9752 3.25043 20.7522 3.25 21.5623V39.0448C3.25198 39.8538 3.57422 40.629 4.14624 41.2011C4.71827 41.7731 5.49354 42.0953 6.3025 42.0973H42.1975C43.0065 42.0953 43.7817 41.7731 44.3538 41.2011C44.9258 40.629 45.248 39.8538 45.25 39.0448V21.5623C45.2496 20.7522 44.9281 19.9752 44.3559 19.4017C43.7838 18.8281 43.0076 18.5047 42.1975 18.5023ZM40.4125 25.8973V34.7023C40.4103 34.8696 40.3524 35.0314 40.2478 35.1621C40.1432 35.2927 39.9981 35.3847 39.8353 35.4234C39.6725 35.4622 39.5014 35.4455 39.3492 35.376C39.197 35.3065 39.0723 35.1882 38.995 35.0398L36.01 29.0773V34.7023C36.0064 34.8988 35.9258 35.0861 35.7855 35.2237C35.6452 35.3614 35.4565 35.4386 35.26 35.4386C35.0634 35.4386 34.8747 35.3614 34.7345 35.2237C34.5942 35.086 34.5136 34.8988 34.51 34.7023V25.8973C34.5144 25.7302 34.5739 25.5693 34.6793 25.4396C34.7846 25.3098 34.93 25.2186 35.0926 25.1801C35.2552 25.1416 35.426 25.1579 35.5784 25.2266C35.7308 25.2953 35.8562 25.4124 35.935 25.5598L38.9125 31.5298V25.8973C38.9154 25.7003 38.9957 25.5124 39.1361 25.3741C39.2764 25.2358 39.4655 25.1583 39.6625 25.1583C39.8595 25.1583 40.0486 25.2358 40.1889 25.3741C40.3293 25.5124 40.4096 25.7003 40.4125 25.8973ZM30.8575 29.5498C31.0545 29.5527 31.2424 29.633 31.3807 29.7734C31.5189 29.9137 31.5964 30.1028 31.5964 30.2998C31.5964 30.4968 31.5189 30.6859 31.3806 30.8262C31.2424 30.9666 31.0544 31.0469 30.8575 31.0498H27.205V33.9523H30.8575C31.0564 33.9523 31.2472 34.0313 31.3878 34.172C31.5285 34.3126 31.6075 34.5034 31.6075 34.7023C31.6075 34.9012 31.5285 35.092 31.3878 35.2326C31.2472 35.3733 31.0564 35.4523 30.8575 35.4523H26.455C26.3562 35.4533 26.2583 35.4345 26.1668 35.3972C26.0754 35.3598 25.9923 35.3046 25.9225 35.2348C25.8527 35.165 25.7975 35.0819 25.7601 34.9905C25.7228 34.899 25.704 34.8011 25.705 34.7023V25.8973C25.7047 25.7987 25.7238 25.701 25.7614 25.6099C25.799 25.5187 25.8542 25.4359 25.9239 25.3662C25.9936 25.2965 26.0764 25.2413 26.1676 25.2037C26.2587 25.1661 26.3564 25.147 26.455 25.1473H30.8575C31.0564 25.1473 31.2472 25.2263 31.3878 25.367C31.5285 25.5076 31.6075 25.6984 31.6075 25.8973C31.6075 26.0962 31.5285 26.287 31.3878 26.4276C31.2472 26.5683 31.0564 26.6473 30.8575 26.6473H27.205V29.5498H30.8575ZM22.795 28.1023C22.7949 28.884 22.4843 29.6336 21.9316 30.1864C21.3788 30.7391 20.6292 31.0497 19.8475 31.0498H18.3925V34.7023C18.3925 34.9012 18.3135 35.092 18.1728 35.2326C18.0322 35.3733 17.8414 35.4523 17.6425 35.4523C17.4436 35.4523 17.2528 35.3733 17.1122 35.2326C16.9715 35.092 16.8925 34.9012 16.8925 34.7023V25.8973C16.8931 25.6986 16.9723 25.5081 17.1128 25.3676C17.2533 25.2271 17.4438 25.1479 17.6425 25.1473H19.8475C20.2351 25.1476 20.6189 25.2242 20.9769 25.3729C21.3348 25.5216 21.66 25.7394 21.9337 26.0139C22.2075 26.2883 22.4245 26.614 22.5722 26.9724C22.72 27.3307 22.7957 27.7147 22.795 28.1023ZM8.0875 28.1023C8.18408 24.2026 13.8901 24.2078 13.99 28.1024V32.5048C13.99 33.2875 13.6791 34.0382 13.1256 34.5916C12.5721 35.1451 11.8215 35.456 11.0388 35.456C10.256 35.456 9.50537 35.1451 8.9519 34.5916C8.39843 34.0382 8.0875 33.2875 8.0875 32.5048V28.1023ZM7.2475 22.9348C7.00383 22.9348 6.77014 22.838 6.59785 22.6657C6.42555 22.4934 6.32875 22.2597 6.32875 22.016C6.32875 21.7724 6.42555 21.5387 6.59785 21.3664C6.77014 21.1941 7.00383 21.0973 7.2475 21.0973C7.49117 21.0973 7.72486 21.1941 7.89715 21.3664C8.06945 21.5387 8.16625 21.7724 8.16625 22.016C8.16625 22.2597 8.06945 22.4934 7.89715 22.6657C7.72486 22.838 7.49117 22.9348 7.2475 22.9348ZM7.2475 37.6648C7.48815 37.6694 7.71741 37.7682 7.88599 37.94C8.05456 38.1118 8.149 38.3428 8.149 38.5835C8.149 38.8242 8.05456 39.0553 7.88599 39.2271C7.71741 39.3989 7.48815 39.4977 7.2475 39.5023C7.00685 39.4977 6.77759 39.3989 6.60901 39.2271C6.44044 39.0553 6.346 38.8242 6.346 38.5835C6.346 38.3428 6.44044 38.1118 6.60901 37.94C6.77759 37.7682 7.00685 37.6694 7.2475 37.6648ZM41.38 39.5023C41.1379 39.4999 40.9065 39.402 40.7362 39.23C40.5659 39.058 40.4703 38.8256 40.4703 38.5835C40.4703 38.3414 40.5659 38.1091 40.7362 37.9371C40.9066 37.765 41.1379 37.6672 41.38 37.6648C41.6221 37.6672 41.8535 37.7651 42.0238 37.9371C42.1942 38.1091 42.2897 38.3415 42.2897 38.5836C42.2897 38.8257 42.1942 39.058 42.0238 39.23C41.8535 39.4021 41.6221 39.4999 41.38 39.5023ZM41.38 22.9348C41.1363 22.9348 40.9026 22.838 40.7304 22.6657C40.5581 22.4934 40.4613 22.2597 40.4613 22.016C40.4613 21.7724 40.5581 21.5387 40.7304 21.3664C40.9027 21.1941 41.1364 21.0973 41.38 21.0973C41.5007 21.0973 41.6202 21.1211 41.7316 21.1672C41.8431 21.2134 41.9444 21.2811 42.0297 21.3664C42.115 21.4517 42.1827 21.553 42.2288 21.6645C42.275 21.7759 42.2988 21.8954 42.2988 22.0161C42.2988 22.1367 42.275 22.2562 42.2288 22.3677C42.1827 22.4791 42.115 22.5804 42.0297 22.6657C41.9443 22.751 41.8431 22.8187 41.7316 22.8649C41.6201 22.911 41.5007 22.9348 41.38 22.9348ZM22.96 10.1248C23.3431 10.3766 23.7915 10.5108 24.25 10.5108C24.7084 10.5108 25.1568 10.3766 25.54 10.1248L36.73 18.5023H11.77L22.96 10.1248Z" fill="#F4A426"/>
<path d="M11.0354 33.9525C11.226 33.9531 11.4149 33.9162 11.5912 33.8438C11.7676 33.7714 11.9279 33.6649 12.0631 33.5304C12.1982 33.396 12.3055 33.2362 12.3788 33.0602C12.4522 32.8843 12.4901 32.6956 12.4904 32.505V28.1025C12.486 27.7205 12.3311 27.3557 12.0594 27.0871C11.7877 26.8186 11.4211 26.668 11.0391 26.668C10.6571 26.668 10.2905 26.8186 10.0188 27.0872C9.74716 27.3557 9.59232 27.7205 9.5879 28.1025V32.505C9.58738 32.6952 9.62447 32.8837 9.69703 33.0595C9.76959 33.2354 9.87619 33.3951 10.0107 33.5297C10.1452 33.6642 10.305 33.7708 10.4808 33.8433C10.6567 33.9159 10.8452 33.953 11.0354 33.9525Z" fill="#F4A426"/>
<path d="M18.3926 26.6484V29.5509H19.8476C20.2325 29.5509 20.6016 29.398 20.8738 29.1259C21.1459 28.8537 21.2988 28.4846 21.2988 28.0997C21.2988 27.7148 21.1459 27.3457 20.8738 27.0735C20.6016 26.8013 20.2325 26.6484 19.8476 26.6484H18.3926Z" fill="#F4A426"/>
</svg>
