<svg width="49" height="48" viewBox="0 0 49 48" fill="none" xmlns="http://www.w3.org/2000/svg">
<path d="M36.4887 7.19435C34.8802 5.61786 32.9692 4.38322 30.8709 3.56479C28.7726 2.74637 26.5304 2.36108 24.2792 2.43214C19.947 2.5905 15.8393 4.39914 12.7972 7.48765C9.75512 10.5762 8.00892 14.7108 7.91619 19.0449C7.85704 22.7373 9.0319 26.3439 11.2546 29.2929C11.5622 29.7544 19.5339 40.8374 22.1867 44.5141C22.4668 44.9011 22.834 45.2167 23.2588 45.4353C23.6836 45.6539 24.1538 45.7694 24.6315 45.7724H24.6454C25.1203 45.7717 25.5884 45.6598 26.0122 45.4456C26.436 45.2314 26.8037 44.9209 27.0859 44.539C28.3193 42.8618 37.9331 29.7207 38.1865 29.4013C38.2012 29.3837 38.2143 29.3662 38.2275 29.3471C40.3938 26.4289 41.5702 22.8945 41.5849 19.2602C41.5925 17.0094 41.1449 14.7803 40.2691 12.7068C39.3934 10.6333 38.1075 8.75828 36.4887 7.19435Z" fill="#F4A426"/>
<path d="M24.75 27C28.8921 27 32.25 23.6421 32.25 19.5C32.25 15.3579 28.8921 12 24.75 12C20.6079 12 17.25 15.3579 17.25 19.5C17.25 23.6421 20.6079 27 24.75 27Z" fill="#F5F5F5"/>
</svg>
