<svg width="49" height="48" viewBox="0 0 49 48" fill="none" xmlns="http://www.w3.org/2000/svg">
<g clip-path="url(#clip0_93_10095)">
<path d="M10.75 39L1.75 42L4.75 33L28.75 9L34.75 15L10.75 39Z" fill="#F4A426"/>
<path d="M30.2461 7.50391L34.0394 3.71063C34.4299 3.32011 35.0631 3.32011 35.4536 3.71063L40.0395 8.29657C40.43 8.6871 40.43 9.32026 40.0395 9.71079L36.2462 13.5041L30.2461 7.50391Z" fill="#F4A426"/>
<path d="M46.75 45H1.75C1.35218 45 0.970644 44.842 0.68934 44.5607C0.408035 44.2794 0.25 43.8978 0.25 43.5C0.25 43.1022 0.408035 42.7206 0.68934 42.4393C0.970644 42.158 1.35218 42 1.75 42H46.75C47.1478 42 47.5294 42.158 47.8107 42.4393C48.092 42.7206 48.25 43.1022 48.25 43.5C48.25 43.8978 48.092 44.2794 47.8107 44.5607C47.5294 44.842 47.1478 45 46.75 45Z" fill="#F4A426"/>
</g>
<defs>
<clipPath id="clip0_93_10095">
<rect width="48" height="48" fill="white" transform="translate(0.25)"/>
</clipPath>
</defs>
</svg>
