<svg width="49" height="48" viewBox="0 0 49 48" fill="none" xmlns="http://www.w3.org/2000/svg">
<path d="M44.0901 18.8948C43.5956 18.4003 42.7954 18.4003 42.3008 18.8948L41.4064 19.7892L39.6171 18L34.25 23.3673L36.0389 25.1566L35.1445 26.051C34.65 26.5455 34.65 27.3457 35.1445 27.8402L36.9337 29.6291C37.4279 30.1236 38.2285 30.1236 38.723 29.6291L45.8794 22.4729C46.3735 21.9784 46.3735 21.1782 45.8794 20.6837L44.0901 18.8948Z" fill="#F4A426"/>
<path d="M31.7229 22.6186L38.8791 15.2593C39.3736 14.7511 39.3736 13.9282 38.8791 13.4197L31.7229 6.06064C29.1763 3.44186 25.7912 2 22.1904 2H16.5157C15.9583 2 15.4664 2.37469 15.305 2.92352C15.1432 3.47235 15.3458 4.07606 15.8143 4.38333L22.339 8.85627C23.0562 9.35496 23.5227 10.1453 23.608 11.0309C23.6937 11.9185 23.3906 12.7892 22.7775 13.4197C22.283 13.9282 22.283 14.7511 22.7775 15.2596L29.9337 22.6186C30.4282 23.1271 31.2284 23.1271 31.7229 22.6186Z" fill="#F4A426"/>
<path d="M23.8505 32.3717C24.3832 31.8874 24.3832 31.1037 23.8505 30.6198L18.0683 25.3632C17.5359 24.8789 16.6738 24.8789 16.1411 25.3632L13.25 27.9915L20.9594 35L23.8505 32.3717Z" fill="#F4A426"/>
<path d="M4.73267 37.3429C2.75578 39.321 2.75578 42.5383 4.73267 44.5164C6.70923 46.4945 9.92386 46.4945 11.9004 44.5164L19.25 37.1738L12.0819 30L4.73267 37.3429Z" fill="#F4A426"/>
<path d="M20.25 23.5999L23.8499 20L29.25 25.4001L25.6501 29L20.25 23.5999Z" fill="#F4A426"/>
</svg>
