<svg width="49" height="48" viewBox="0 0 49 48" fill="none" xmlns="http://www.w3.org/2000/svg">
<path d="M39.8135 33.3085C37.7772 32.2903 35.8135 31.1267 33.9953 29.8176C32.3953 28.7267 30.2862 29.163 29.1226 30.6903L28.6135 31.4176C28.2499 31.9267 27.7408 32.2176 27.159 32.2903C26.5772 32.363 25.9953 32.2176 25.4862 31.8539C21.4862 28.6539 17.7772 24.9449 14.5772 20.9449C14.2135 20.5085 14.0681 19.8539 14.1408 19.2721C14.2135 18.6903 14.5044 18.1812 15.0135 17.8176L15.7408 17.3085C17.2681 16.1449 17.7044 14.0358 16.6135 12.4358C15.3772 10.5449 14.2135 8.58122 13.1226 6.61758C12.2499 4.94485 10.1408 4.21758 8.46807 5.09031L5.19534 6.61758C3.30443 7.49031 1.92261 9.09031 1.34079 11.0539C0.758975 13.0176 0.977157 15.1267 1.99534 16.8721C8.68625 28.2176 18.2135 37.8176 29.6317 44.5085C30.7226 45.163 32.0317 45.5267 33.2681 45.5267C33.9953 45.5267 34.7226 45.4539 35.3772 45.2358C37.3408 44.6539 38.9408 43.1994 39.8135 41.3812L41.3408 38.1085C42.2135 36.2176 41.559 34.1812 39.8135 33.3085Z" fill="#F4A426"/>
<path d="M43.8866 2.54492H23.2321C21.1957 2.54492 19.5957 4.14492 19.5957 6.18129V16.1449C19.5957 18.1813 21.1957 19.7813 23.2321 19.7813C23.5957 19.7813 23.9593 20.0722 23.9593 20.5086V22.9086C23.9593 23.4904 24.323 23.9995 24.8321 24.2176C25.0502 24.2904 25.2684 24.3631 25.4139 24.3631C25.7775 24.3631 26.0684 24.2904 26.3593 23.9995L31.4502 19.9267C31.5957 19.854 31.7412 19.7813 31.8866 19.7813H43.8866C45.923 19.7813 47.523 18.1086 47.523 16.1449V6.18129C47.523 4.14492 45.923 2.54492 43.8866 2.54492ZM26.0684 13.5267C24.7593 13.5267 23.7412 12.5086 23.7412 11.1995C23.7412 9.89038 24.8321 8.87219 26.0684 8.87219C27.3775 8.87219 28.4684 9.89038 28.4684 11.1995C28.3957 12.4358 27.3775 13.5267 26.0684 13.5267ZM33.5593 13.5267C32.2502 13.5267 31.2321 12.5086 31.2321 11.1995C31.2321 9.89038 32.2502 8.87219 33.5593 8.87219C34.8684 8.87219 35.8866 9.89038 35.8866 11.1995C35.8866 12.4358 34.8684 13.5267 33.5593 13.5267ZM41.0502 13.5267C39.7412 13.5267 38.723 12.5086 38.723 11.1995C38.723 9.89038 39.8139 8.87219 41.0502 8.87219C42.3593 8.87219 43.3775 9.89038 43.3775 11.1995C43.4502 12.4358 42.3593 13.5267 41.0502 13.5267Z" fill="#F4A426"/>
</svg>
