<svg width="49" height="48" viewBox="0 0 49 48" fill="none" xmlns="http://www.w3.org/2000/svg">
<path d="M35.0195 25.5469C29.3806 25.5469 24.793 30.1345 24.793 35.7734C24.793 41.4124 29.3806 46 35.0195 46C40.7058 46 45.332 41.4124 45.332 35.7734C45.332 30.1345 40.7058 25.5469 35.0195 25.5469ZM38.1582 34.5362L34.7207 38.6612C34.4743 38.9569 34.1105 39.125 33.7306 39.125C33.6811 39.125 33.6316 39.1222 33.5818 39.1164C33.1497 39.0662 32.772 38.8015 32.5774 38.4124L31.2024 35.6624C30.884 35.0257 31.1422 34.2513 31.7789 33.933C32.4156 33.6144 33.19 33.8727 33.5084 34.5095L34.0019 35.4965L36.1776 32.8857C36.6334 32.3389 37.4463 32.265 37.9931 32.7206C38.5401 33.1764 38.614 33.9892 38.1582 34.5362Z" fill="#F4A426"/>
<path d="M34.4639 9.34362L29.2336 3.9348C29.2311 3.93222 29.2285 3.92955 29.2261 3.92698C28.0218 2.70237 26.3461 2 24.6288 2H8.03516C5.90279 2 4.16797 3.73482 4.16797 5.86719V39.2969C4.16797 41.4292 5.90279 43.1641 8.03516 43.1641H24.5687C23.0869 41.0747 22.2148 38.5241 22.2148 35.7734C22.2148 28.7129 27.959 22.9688 35.0195 22.9688C35.4545 22.9688 35.8845 22.9906 36.3086 23.0326V13.8577C36.3086 12.1588 35.6535 10.5559 34.4639 9.34362ZM17.832 30.7891H10.957C10.2451 30.7891 9.66797 30.2119 9.66797 29.5C9.66797 28.7881 10.2451 28.2109 10.957 28.2109H17.832C18.5439 28.2109 19.1211 28.7881 19.1211 29.5C19.1211 30.2119 18.5439 30.7891 17.832 30.7891ZM17.832 23.9141H10.957C10.2451 23.9141 9.66797 23.3369 9.66797 22.625C9.66797 21.9131 10.2451 21.3359 10.957 21.3359H17.832C18.5439 21.3359 19.1211 21.9131 19.1211 22.625C19.1211 23.3369 18.5439 23.9141 17.832 23.9141ZM17.832 17.0391H10.957C10.2451 17.0391 9.66797 16.4619 9.66797 15.75C9.66797 15.0381 10.2451 14.4609 10.957 14.4609H17.832C18.5439 14.4609 19.1211 15.0381 19.1211 15.75C19.1211 16.4619 18.5439 17.0391 17.832 17.0391ZM26.082 23.9141H24.707C23.9951 23.9141 23.418 23.3369 23.418 22.625C23.418 21.9131 23.9951 21.3359 24.707 21.3359H26.082C26.7939 21.3359 27.3711 21.9131 27.3711 22.625C27.3711 23.3369 26.7939 23.9141 26.082 23.9141ZM26.082 17.0391H24.707C23.9951 17.0391 23.418 16.4619 23.418 15.75C23.418 15.0381 23.9951 14.4609 24.707 14.4609H26.082C26.7939 14.4609 27.3711 15.0381 27.3711 15.75C27.3711 16.4619 26.7939 17.0391 26.082 17.0391Z" fill="#F4A426"/>
</svg>
