<svg width="49" height="48" viewBox="0 0 49 48" fill="none" xmlns="http://www.w3.org/2000/svg">
<path d="M10.7711 24.7617C9.98668 24.7605 9.35032 25.3862 9.35092 26.158V29.1533H3.67017C2.88579 29.1522 2.24947 29.7778 2.25 30.5496V37.6018C2.24887 38.374 2.88536 39.0003 3.67017 38.9992H39.1748C39.9592 38.9997 40.595 38.3736 40.5939 37.6018V30.5496C40.5944 29.7782 39.9588 29.1528 39.1748 29.1533H33.4885V26.158C33.4891 25.3883 32.8561 24.7635 32.0739 24.7617C31.2899 24.7611 30.6542 25.3866 30.6548 26.158V29.1533H22.8371V26.158C22.8377 25.3883 22.2047 24.7635 21.4225 24.7617C20.6385 24.7611 20.0028 25.3866 20.0034 26.158V29.1533H12.1858V26.158C12.1864 25.3883 11.5534 24.7635 10.7711 24.7617Z" fill="#F4A426"/>
<path d="M3.6702 9C2.77553 9.00021 2.1046 9.80554 2.27993 10.6688C3.15465 14.9865 5.86464 18.273 9.36425 20.3948C12.8638 22.5165 17.1482 23.5383 21.4225 23.5383C25.6968 23.5383 29.9768 22.5165 33.4764 20.3948C36.1131 18.7962 38.3038 16.5357 39.598 13.6717H44.8357C45.6179 13.6699 46.2509 13.0451 46.2503 12.2754C46.2509 11.5058 45.6179 10.8809 44.8357 10.8791H40.5197C40.5347 10.8089 40.5508 10.7395 40.5652 10.6688C40.7405 9.80561 40.0696 9.00028 39.1749 9.00006L3.6702 9Z" fill="#F4A426"/>
</svg>
