<svg width="24" height="24" fill="none" xmlns="http://www.w3.org/2000/svg"><path d="M7.878 9a1.29 1.29 0 112.58 0 1.29 1.29 0 01-2.58 0zm5.856 0a1.296 1.296 0 112.593.013A1.296 1.296 0 0113.734 9zm3.066 5.298a5.285 5.285 0 01-9.6 0 .6.6 0 01.342-.816.545.545 0 01.234-.048.63.63 0 01.6.384 4.032 4.032 0 007.278 0 .625.625 0 111.146.498v-.018zm2.202 8.502H4.998A3.804 3.804 0 011.2 19.002V4.998A3.804 3.804 0 014.998 1.2h14.004A3.804 3.804 0 0122.8 4.998v14.004a3.804 3.804 0 01-3.798 3.798zM4.998 3A2.01 2.01 0 003 4.998v14.004A2.01 2.01 0 004.998 21h14.004A2.01 2.01 0 0021 19.002V4.998A2.01 2.01 0 0019.002 3H4.998z" fill="#fff"/></svg>