<svg width="22" height="22" fill="none" xmlns="http://www.w3.org/2000/svg"><path d="M5.24 9.56v10.8a.72.72 0 01-.72.72H.92a.72.72 0 01-.72-.72V9.56a.72.72 0 01.72-.72h3.6a.72.72 0 01.72.72zm16.56 2.88a2.155 2.155 0 00-.996-1.8 2.166 2.166 0 00-1.884-3.222h-5.748v-3.6c-.048-2.262-2.4-2.862-3.6-2.862a.72.72 0 00-.685.49.69.69 0 00-.029.296c.15 1.596.264 4.122.036 4.728a23.399 23.399 0 01-1.866 3.126H6.68v10.122a15.16 15.16 0 002.04.66h9.48a2.16 2.16 0 002.16-2.16 2.136 2.136 0 00-.276-1.062 2.166 2.166 0 00.72-2.88 2.154 2.154 0 00.996-1.8v-.036z" fill="#fff"/></svg>