<svg width="24" height="24" fill="none" xmlns="http://www.w3.org/2000/svg"><g clip-path="url(#clip0_339_100)"><path d="M12 2.191a.888.888 0 00-.894.894v8.021l-8.018-.002a.896.896 0 00-.003 1.79h8.021l-.003 8.018a.9.9 0 001.53.637.88.88 0 00.258-.63l.003-8.025 8.018.003a.9.9 0 00.634-.26.87.87 0 00.257-.631.893.893 0 00-.896-.897l-8.01-.005-.003-8.02A.89.89 0 0012 2.192z" fill="#FF216E"/></g><defs><clipPath id="clip0_339_100"><path fill="#fff" transform="rotate(-45 14.828 5.172)" d="M0 0h16v16H0z"/></clipPath></defs></svg>