<svg width="24" height="24" fill="none" xmlns="http://www.w3.org/2000/svg"><path d="M18.678 18.828h-.114v-4.764A6.12 6.12 0 0012.45 7.95h-.894a6.12 6.12 0 00-6.114 6.114v4.764h-.126a1.932 1.932 0 00-1.932 1.932v1.362a.672.672 0 00.684.678h15.87a.673.673 0 00.672-.678V20.76a1.932 1.932 0 00-1.932-1.932zm.582 2.622H4.746v-.69a.6.6 0 01.6-.6h13.332a.6.6 0 01.6.6l-.018.69zM11.316 4.98V1.872a.678.678 0 011.35 0V4.98a.678.678 0 01-1.35 0zm5.952 2.862a.679.679 0 010-.96l2.196-2.19a.675.675 0 01.954.954l-2.196 2.196a.667.667 0 01-.734.147.678.678 0 01-.22-.147zM3.576 5.646a.675.675 0 11.954-.954l2.196 2.19a.678.678 0 01-.737 1.107.666.666 0 01-.217-.147L3.576 5.646z" fill="#fff"/></svg>