<svg width="220" height="40" viewBox="0 0 220 40" fill="none" xmlns="http://www.w3.org/2000/svg">
<g clip-path="url(#clip0_170_251)">
<path d="M31.6004 1.81986H5.66446C4.73262 1.75611 3.81236 2.05971 3.09378 2.66795C2.37519 3.27619 1.9132 4.14262 1.80322 5.08822V36.6574C1.9132 37.603 2.37519 38.4694 3.09378 39.0776C3.81236 39.6859 4.73262 39.9895 5.66446 39.9257H31.6004C32.5322 39.9895 33.4525 39.6859 34.1711 39.0776C34.8897 38.4694 35.3517 37.603 35.4616 36.6574V5.08822C35.3517 4.14262 34.8897 3.27619 34.1711 2.66795C33.4525 2.05971 32.5322 1.75611 31.6004 1.81986Z" fill="#DCDDDD"/>
<path d="M30.198 0.984258H4.69918C3.78624 0.900564 2.87735 1.18377 2.16626 1.77349C1.45517 2.36322 0.99813 3.21281 0.892578 4.14117V35.2461C0.984922 36.181 1.43371 37.0416 2.14228 37.6425C2.85085 38.2433 3.76251 38.5365 4.68097 38.4587H30.1798C31.0982 38.5365 32.0099 38.2433 32.7185 37.6425C33.427 37.0416 33.8758 36.181 33.9682 35.2461V4.14117C33.8583 3.22169 33.4053 2.38069 32.7032 1.79282C32.0011 1.20495 31.104 0.915389 30.198 0.984258Z" fill="white" stroke="#B5B6B6" stroke-miterlimit="10"/>
<path d="M3.22354 21.7085C3.1854 21.729 3.15348 21.7597 3.13121 21.7973C3.10894 21.8349 3.09717 21.878 3.09717 21.922C3.09717 21.966 3.10894 22.0091 3.13121 22.0467C3.15348 22.0843 3.1854 22.1151 3.22354 22.1356L6.35625 23.2683L4.95381 24.0111C4.90354 24.035 4.86102 24.0731 4.83122 24.1208C4.80142 24.1685 4.78558 24.2239 4.78558 24.2804C4.78558 24.337 4.80142 24.3924 4.83122 24.4401C4.86102 24.4877 4.90354 24.5258 4.95381 24.5497L7.23048 25.3296V19.5543L3.22354 21.7085Z" fill="#3F3B3A"/>
<path d="M17.7035 3.11975C16.7845 3.11952 15.8931 3.43993 15.1774 4.02774C14.4617 4.61556 13.9648 5.43538 13.7694 6.35096C13.4722 6.23847 13.1575 6.18185 12.8405 6.18384C12.0997 6.18382 11.3891 6.48256 10.8636 7.01487C10.3381 7.54717 10.0405 8.26982 10.0356 9.02506C10.0382 9.76507 10.3184 10.476 10.8188 11.012C11.7914 10.1842 12.9104 9.55386 14.1154 9.15503C14.6033 8.98813 15.1025 8.85781 15.6089 8.76508C16.1809 8.66884 16.7595 8.61916 17.3392 8.61651H21.5283C21.6657 8.18433 21.7394 7.73372 21.7469 7.27946C21.7517 6.73496 21.6507 6.19489 21.4496 5.69043C21.2486 5.18596 20.9515 4.7271 20.5755 4.34034C20.1996 3.95358 19.7522 3.64658 19.2593 3.43708C18.7663 3.22759 18.2375 3.11973 17.7035 3.11975Z" fill="#3F3B3A"/>
<path d="M29.797 19.4243C29.9515 19.4243 30.0998 19.3617 30.2091 19.2503C30.3184 19.1388 30.3798 18.9877 30.3798 18.8301V18.1987C30.375 15.7985 29.4364 13.4982 27.7701 11.8027C26.1038 10.1072 23.8458 9.15502 21.4916 9.15503H17.2843C16.0414 9.15503 14.8108 9.40494 13.6627 9.89045C12.5147 10.376 11.4718 11.0875 10.5938 11.9845C9.71575 12.8814 9.01986 13.9461 8.54589 15.1175C8.07191 16.289 7.82917 17.5443 7.83156 18.8115V26.091C7.83156 28.4912 8.76548 30.7934 10.4284 32.4924C12.0913 34.1913 14.3474 35.1483 16.7015 35.1532H21.437C23.7943 35.1532 26.055 34.1984 27.7219 32.4989C29.3887 30.7994 30.3252 28.4944 30.3252 26.091V24.4382C30.3252 24.3611 30.31 24.2847 30.2805 24.2136C30.251 24.1425 30.2078 24.0782 30.1534 24.0245C30.099 23.9707 30.0346 23.9288 29.964 23.9009C29.8934 23.8731 29.818 23.8601 29.7423 23.8626H20.6356C20.1747 23.8552 19.7219 23.9872 19.3346 24.2421C18.9473 24.4969 18.6428 24.8631 18.4596 25.2944C18.2763 25.7257 18.2226 26.2027 18.3052 26.6651C18.3878 27.1275 18.603 27.5545 18.9235 27.8923C19.1425 28.118 19.4035 28.2968 19.6913 28.418C19.9791 28.5392 20.2878 28.6004 20.5992 28.5979H23.7137C23.1981 29.1754 22.5714 29.6383 21.8726 29.9578C21.1738 30.2773 20.4179 30.4465 19.6521 30.4549H18.5775C17.059 30.4549 15.6025 29.8412 14.5271 28.7482C13.4517 27.6552 12.8451 26.1721 12.8403 24.6239V19.6472C12.8403 18.0957 13.4447 16.6079 14.5207 15.5109C15.5966 14.4139 17.0559 13.7976 18.5775 13.7976H19.6521C20.949 13.7968 22.2053 14.2587 23.2033 15.1032C24.2013 15.9477 24.878 17.1217 25.1161 18.4215C25.1671 18.6985 25.3116 18.9486 25.5245 19.1284C25.7374 19.3081 26.0053 19.4062 26.2818 19.4057H29.7059L29.797 19.4243Z" fill="#F39800"/>
<path d="M17.9949 19.0901C17.9949 19.8515 17.6124 20.4457 17.1389 20.4457C16.6653 20.4457 16.2646 19.8515 16.2646 19.0901C16.2646 18.3287 16.6653 17.7531 17.1389 17.7531C17.6124 17.7531 17.9949 18.3473 17.9949 19.0901Z" fill="#F39800"/>
<path d="M47.8831 22.117L42.6376 25.1253L40.106 22.2098L45.57 19.2386V18.9229H41.4355V15.3018H54.1849V18.9229H50.0687V19.1458L54.9681 21.2627L52.8736 24.2154L47.8831 22.117ZM42.929 34.4104V28.8393L55.0956 27.7251V27.1681L42.929 28.2822V25.5524L59.5943 23.8254V29.7307L47.4278 30.8449V31.4763L59.995 30.3621V34.4104H42.929ZM59.5943 21.9127V23.2683L55.0956 23.7511V15.3389H59.5943V17.5302L61.9074 17.2702V21.8013L59.5943 21.9127Z" fill="#231916"/>
<path d="M59.995 36.6759H42.929C42.6405 36.6761 42.355 36.617 42.0893 36.5023C41.8237 36.3875 41.5835 36.2195 41.3829 36.0081C41.1824 35.7966 41.0256 35.5462 40.922 35.2717C40.8184 34.9973 40.77 34.7043 40.7798 34.4103V28.8393C40.7798 28.8393 40.7798 28.6536 40.7798 28.5608C40.7798 28.4679 40.7798 28.3751 40.7798 28.2822V26.2395L38.5031 23.6025C38.2836 23.3539 38.1234 23.057 38.035 22.7349C37.9465 22.4128 37.9322 22.0742 37.9931 21.7455C38.0548 21.4232 38.1845 21.1184 38.3732 20.8523C38.5619 20.5862 38.8051 20.365 39.0859 20.2042L39.5231 19.9628C39.3197 19.6214 39.2125 19.2295 39.2134 18.83V15.2089C39.2134 14.6277 39.4399 14.0703 39.8429 13.6594C40.246 13.2484 40.7926 13.0176 41.3626 13.0176H54.112C54.4574 13.1167 54.823 13.1167 55.1684 13.0176H59.6671C60.1932 13.0193 60.7001 13.2195 61.0902 13.5795C61.4803 13.9395 61.7259 14.4338 61.7799 14.9674C62.0717 14.9408 62.3659 14.9748 62.6445 15.0674C62.9231 15.1599 63.1804 15.3092 63.4009 15.506C63.6262 15.7114 63.806 15.9634 63.9285 16.2451C64.0509 16.5269 64.1132 16.832 64.1112 17.1401V21.6713C64.1129 22.1957 63.93 22.7034 63.5958 23.102C63.2616 23.5007 62.7982 23.764 62.2899 23.844H61.8709V28.8765C62.1466 29.2512 62.2938 29.7079 62.2899 30.1764V34.4103C62.3008 34.7172 62.2483 35.023 62.1358 35.3079C62.0234 35.5928 61.8535 35.8504 61.6371 36.064C61.4207 36.2776 61.1627 36.4425 60.8798 36.5479C60.5969 36.6533 60.2954 36.6969 59.995 36.6759ZM45.0599 32.3119H45.4971C45.354 32.0241 45.2791 31.7061 45.2785 31.3834V30.6963H45.0599V32.3119ZM57.0444 26.2024C57.1674 26.4761 57.2296 26.7741 57.2265 27.0752V27.6694H57.4451V26.1652L57.0444 26.2024ZM57.2265 17.4187V21.2256H57.5908C57.7342 20.8416 57.9814 20.5069 58.3038 20.2604C58.6261 20.0139 59.0105 19.8656 59.4121 19.8328H59.831V19.5543C59.5421 19.5794 59.2511 19.5447 58.9756 19.4521C58.7002 19.3596 58.4459 19.2111 58.2282 19.0157C58.003 18.8103 57.8231 18.5583 57.7006 18.2766C57.5782 17.9948 57.5159 17.6897 57.5179 17.3816H57.2994L57.2265 17.4187ZM47.1181 17.4187C47.4594 17.821 47.6469 18.3353 47.6462 18.8672V19.1829C47.6455 19.4498 47.5961 19.7143 47.5005 19.9628C47.7122 19.9352 47.9264 19.9352 48.138 19.9628C48.0279 19.6921 47.9722 19.4016 47.9741 19.1086V18.8857C47.9735 18.3538 48.161 17.8395 48.5023 17.4373L47.1181 17.4187Z" fill="#231916"/>
<path d="M63.0547 27.2609V15.3204H75.2212V25.9425L63.0547 27.2609ZM64.4389 34.2061V27.8552L68.9376 27.4281V30.3807L81.177 29.2665V34.2061H64.4389ZM70.7408 19.0901H67.5352V23.0084L70.7408 22.6555V19.0901ZM76.478 28.2637V15.2646H81.0313V19.4615L83.3444 19.2015V23.7326L81.0313 24.0112V27.818L76.478 28.2637Z" fill="#231916"/>
<path d="M81.1772 36.3788H64.439C64.1576 36.3812 63.8786 36.3269 63.6179 36.2188C63.3573 36.1107 63.1202 35.951 62.9204 35.749C62.7206 35.547 62.562 35.3067 62.4538 35.0418C62.3455 34.777 62.2898 34.493 62.2898 34.2061V29.3036C62.0449 29.2085 61.8217 29.0631 61.6342 28.8765C61.4103 28.6739 61.2311 28.425 61.1087 28.1465C60.9862 27.868 60.9232 27.5661 60.9238 27.2608V15.3203C60.9238 14.744 61.1483 14.1914 61.548 13.784C61.9476 13.3765 62.4896 13.1476 63.0548 13.1476H75.2214C75.3848 13.1293 75.5497 13.1293 75.7131 13.1476C75.9569 13.0502 76.2163 12.9998 76.4781 12.999H81.0314C81.3137 12.999 81.5932 13.0557 81.8539 13.1658C82.1147 13.276 82.3516 13.4373 82.5511 13.6408C82.7507 13.8443 82.909 14.0859 83.017 14.3517C83.125 14.6176 83.1806 14.9025 83.1806 15.1903V16.9545C83.4696 16.9293 83.7606 16.9641 84.036 17.0566C84.3115 17.1492 84.5657 17.2976 84.7834 17.493C85.0087 17.6984 85.1886 17.9504 85.311 18.2322C85.4335 18.5139 85.4958 18.819 85.4937 19.1272V23.6583C85.4954 24.1827 85.3125 24.6904 84.9783 25.0891C84.6441 25.4877 84.1807 25.751 83.6724 25.831H83.2535V27.688C83.271 27.836 83.271 27.9856 83.2535 28.1336C83.4187 28.4479 83.5062 28.7985 83.5085 29.155V34.0947C83.5256 34.4072 83.4763 34.7199 83.3639 35.0112C83.2515 35.3026 83.0787 35.5657 82.8573 35.7826C82.6359 35.9996 82.3712 36.1651 82.0812 36.268C81.7912 36.3709 81.4828 36.4087 81.1772 36.3788ZM74.9482 32.0148H79.0462V31.6434L74.9482 32.0148ZM66.57 32.0148H67.5171C67.2997 31.8119 67.1259 31.5652 67.0068 31.2903C66.8876 31.0154 66.8257 30.7183 66.825 30.4178V29.8607H66.6064L66.57 32.0148ZM78.6273 17.4187V25.8495H78.8458V23.9925C78.8442 23.4681 79.0271 22.9604 79.3613 22.5617C79.6955 22.1631 80.1588 21.8998 80.6672 21.8198H81.0861V21.6713C80.7907 21.7 80.4927 21.6649 80.2115 21.5684C79.9303 21.4719 79.6722 21.3161 79.454 21.1111C79.2358 20.9062 79.0624 20.6567 78.9451 20.3788C78.8277 20.101 78.7691 19.801 78.773 19.4986V17.4744L78.6273 17.4187ZM65.204 17.5115V24.8282L66.2057 24.7168L66.0964 24.6239C65.8761 24.4184 65.6993 24.169 65.5772 23.8911C65.455 23.6132 65.39 23.3128 65.3861 23.0083V19.09C65.386 18.7938 65.4457 18.5008 65.5617 18.2292C65.6776 17.9576 65.8473 17.7133 66.06 17.5115H65.204ZM72.2162 17.5115C72.4289 17.7133 72.5985 17.9576 72.7145 18.2292C72.8304 18.5008 72.8902 18.7938 72.89 19.09V22.6555C72.8844 23.1661 72.704 23.6588 72.3801 24.0482H73.0722V17.5115H72.2162Z" fill="#231916"/>
<path d="M83.9819 28.7094V25.2368L104.235 23.9369V27.4095L83.9819 28.7094ZM85.6029 24.3826V15.2646H102.596V18.6073H90.1381V20.5943L102.632 19.7958V23.2684L85.6029 24.3826ZM85.6029 34.2061V29.0622L90.1381 28.8394V30.6964L103.051 29.805V34.169L85.6029 34.2061Z" fill="#231916"/>
<path d="M103.07 36.3788H85.6578C85.3765 36.3813 85.0974 36.3269 84.8368 36.2188C84.5761 36.1107 84.339 35.9511 84.1392 35.7491C83.9394 35.5471 83.7808 35.3067 83.6726 35.0419C83.5644 34.7771 83.5086 34.493 83.5087 34.2061V30.845C83.1335 30.7497 82.7886 30.5579 82.5069 30.2879C82.2933 30.0868 82.1231 29.8427 82.0071 29.5709C81.891 29.2992 81.8318 29.0058 81.833 28.7094V25.2368C81.8324 24.7472 81.9939 24.2718 82.2914 23.8876C82.5889 23.5033 83.005 23.2328 83.4722 23.1198V15.2647C83.4722 14.6867 83.6961 14.1321 84.0953 13.7217C84.4944 13.3113 85.0364 13.0783 85.6032 13.0734H102.596C103.166 13.0734 103.713 13.3043 104.116 13.7152C104.519 14.1261 104.746 14.6835 104.746 15.2647V18.6073C104.618 18.9927 104.618 19.4103 104.746 19.7958V21.8199C105.108 21.9093 105.441 22.0951 105.711 22.3584C105.921 22.5622 106.089 22.8069 106.205 23.078C106.32 23.3491 106.382 23.6412 106.385 23.9369V27.4095C106.385 27.8218 106.271 28.2259 106.055 28.5745C105.839 28.923 105.53 29.2017 105.164 29.3779C105.183 29.5321 105.183 29.688 105.164 29.8422V34.2061C105.165 34.776 104.945 35.3231 104.553 35.7295C104.161 36.1359 103.629 36.3691 103.07 36.3788ZM87.7888 32.0149H88.4263C88.2262 31.7489 88.0947 31.4361 88.0438 31.1049H87.7888V32.0149ZM87.7888 17.4373V22.0613H88.5174C88.1908 21.6589 88.0106 21.1537 88.0074 20.6314V18.6444C88.0009 18.23 88.115 17.8229 88.3352 17.4745L87.7888 17.4373Z" fill="#231916"/>
<path d="M116.329 33.7419L112.486 29.1923L108.479 33.9648L105.237 31.2907L110.21 25.014V23.8069H106.112V19.9072H119.134V23.8069H114.818V25.1254L119.681 30.9564L116.329 33.7419ZM108.516 19.2944V15.3204H116.839V19.2944H108.516ZM120.154 34.689V15.2461H124.744V33.8162L120.154 34.689Z" fill="#231916"/>
<path d="M120.154 36.8803C119.656 36.8752 119.175 36.6985 118.788 36.3789C118.408 36.0577 118.15 35.6109 118.06 35.1161L117.714 35.4132C117.28 35.7785 116.724 35.9575 116.163 35.9125C115.602 35.8674 115.081 35.6018 114.708 35.1718L112.486 32.5534L110.173 35.3761C109.812 35.8091 109.3 36.0808 108.745 36.1328C108.19 36.1849 107.637 36.0132 107.204 35.6546L103.962 32.9805C103.744 32.8005 103.563 32.5783 103.429 32.3266C103.296 32.075 103.212 31.7989 103.183 31.5141C103.154 31.2294 103.181 30.9417 103.262 30.6675C103.342 30.3933 103.475 30.1381 103.653 29.9165L106.767 25.9982H106.185C105.903 25.9982 105.625 25.9414 105.365 25.831C105.105 25.7207 104.869 25.559 104.671 25.3553C104.473 25.1516 104.317 24.9098 104.211 24.6441C104.105 24.3783 104.051 24.0938 104.054 23.8069V19.9072C104.054 19.331 104.278 18.7783 104.678 18.3709C105.077 17.9634 105.619 17.7345 106.185 17.7345H106.44V15.3204C106.439 15.0335 106.495 14.7494 106.603 14.4846C106.712 14.2198 106.87 13.9794 107.07 13.7774C107.27 13.5754 107.507 13.4158 107.768 13.3077C108.028 13.1996 108.307 13.1452 108.589 13.1477H116.912C117.22 13.15 117.524 13.2191 117.803 13.3503C118.083 13.4816 118.332 13.6721 118.533 13.9091C118.731 13.6424 118.987 13.4264 119.281 13.2781C119.575 13.1298 119.899 13.0534 120.227 13.0548H124.744C125.025 13.0548 125.304 13.1116 125.564 13.222C125.823 13.3323 126.059 13.494 126.257 13.6977C126.455 13.9015 126.612 14.1432 126.718 14.4089C126.824 14.6747 126.877 14.9592 126.875 15.2461V33.8162C126.872 34.3374 126.687 34.8407 126.354 35.2355C126.02 35.6303 125.559 35.8908 125.054 35.9703L120.555 36.8617L120.154 36.8803ZM122.285 17.4188V32.052H122.504V17.4745L122.285 17.4188ZM112.486 26.9824C112.793 26.9787 113.097 27.0433 113.377 27.1716C113.657 27.2999 113.906 27.4888 114.107 27.7252L116.566 30.6407H116.657L113.197 26.481C112.867 26.0875 112.686 25.587 112.687 25.0697V23.8441C112.685 23.5161 112.756 23.192 112.895 22.8961C113.034 22.6003 113.237 22.3402 113.488 22.1356H111.539C111.796 22.3365 112.004 22.5952 112.146 22.8917C112.288 23.1881 112.361 23.5141 112.359 23.8441V25.0511C112.361 25.5511 112.194 26.0364 111.885 26.4253L109.481 29.4522L110.865 27.8181C111.066 27.5792 111.314 27.3875 111.594 27.256C111.874 27.1246 112.178 27.0566 112.486 27.0567V26.9824Z" fill="#231916"/>
<path d="M127.421 27.6323L126.347 24.3269L135.071 22.7112V22.1913L127.895 22.9712V19.8143L135.071 19.2201V18.6815H127.786V15.3204H139.387V25.1254L127.421 27.6323ZM129.498 34.2061V27.8552L133.996 27.4281V30.3807L146.236 29.2665V34.2061H129.498ZM141.555 28.2637V15.2646H146.054V27.818L141.555 28.2637Z" fill="#231916"/>
<path d="M146.236 36.3789H129.497C129.216 36.3813 128.937 36.327 128.676 36.2189C128.416 36.1108 128.179 35.9511 127.979 35.7491C127.779 35.5471 127.62 35.3068 127.512 35.042C127.404 34.7771 127.348 34.4931 127.348 34.2062V29.8236C126.91 29.8056 126.487 29.6521 126.135 29.3835C125.784 29.1149 125.521 28.7438 125.381 28.3195L124.325 24.9954C124.219 24.6913 124.181 24.3672 124.212 24.0462C124.244 23.7252 124.344 23.4152 124.507 23.1384C124.794 22.6686 125.242 22.3244 125.764 22.1728V19.7587C125.747 19.5982 125.747 19.4363 125.764 19.2758C125.69 19.0676 125.653 18.8474 125.654 18.6259V15.2647C125.654 14.9778 125.71 14.6938 125.818 14.4289C125.927 14.1641 126.085 13.9238 126.285 13.7218C126.485 13.5198 126.722 13.3601 126.983 13.252C127.243 13.1439 127.522 13.0895 127.804 13.092H139.406C139.742 13.086 140.075 13.1692 140.371 13.3334C140.706 13.1093 141.099 12.9929 141.5 12.9991H145.999C146.28 12.9991 146.559 13.0559 146.819 13.1663C147.078 13.2766 147.314 13.4383 147.512 13.642C147.71 13.8458 147.867 14.0875 147.973 14.3532C148.079 14.619 148.132 14.9035 148.13 15.1904V27.7438C148.139 27.8922 148.139 28.0411 148.13 28.1895C148.281 28.5083 148.361 28.8569 148.367 29.2108V34.1505C148.374 34.4405 148.324 34.729 148.22 34.9991C148.116 35.2691 147.961 35.5153 147.762 35.7229C147.563 35.9306 147.326 36.0957 147.064 36.2083C146.802 36.321 146.52 36.379 146.236 36.3789ZM140.007 32.0149H144.105V31.6435L140.007 32.0149ZM131.647 32.0149H132.594C132.37 31.8159 132.191 31.5704 132.069 31.2949C131.946 31.0194 131.883 30.7204 131.883 30.4179V29.8608H131.683L131.647 32.0149ZM139.406 27.4095L136.892 27.9109L139.406 27.6881V27.4095ZM143.686 17.4188V25.8496H143.904V17.456L143.686 17.4188ZM136.637 20.7057C137.005 21.1092 137.207 21.6408 137.202 22.1913V22.7113C137.204 22.9511 137.167 23.1896 137.092 23.417H137.311V17.5117H136.874C137.086 17.8639 137.199 18.2684 137.202 18.6816V19.2201C137.201 19.7697 137 20.2993 136.637 20.7057Z" fill="#231916"/>
<path d="M47.8831 22.117L42.6376 25.1253L40.106 22.2098L45.57 19.2386V18.9229H41.4355V15.3018H54.1849V18.9229H50.0687V19.1458L54.9681 21.2627L52.8736 24.2154L47.8831 22.117ZM42.929 34.4104V28.8393L55.0956 27.7251V27.1681L42.929 28.2822V25.5524L59.5943 23.8254V29.7307L47.4278 30.8449V31.4763L59.995 30.3621V34.4104H42.929ZM59.5943 21.9127V23.2683L55.0956 23.7511V15.3389H59.5943V17.5302L61.9074 17.2702V21.8013L59.5943 21.9127Z" fill="white"/>
<path d="M63.0547 27.2609V15.3204H75.2212V25.9425L63.0547 27.2609ZM64.4389 34.2061V27.8552L68.9376 27.4281V30.3807L81.177 29.2665V34.2061H64.4389ZM70.7408 19.0901H67.5352V23.0084L70.7408 22.6555V19.0901ZM76.478 28.2637V15.2646H81.0313V19.4615L83.3444 19.2015V23.7326L81.0313 24.0112V27.818L76.478 28.2637Z" fill="white"/>
<path d="M83.9819 28.7094V25.2368L104.235 23.9369V27.4095L83.9819 28.7094ZM85.6029 24.3826V15.2646H102.596V18.6073H90.1381V20.5943L102.632 19.7958V23.2684L85.6029 24.3826ZM85.6029 34.2061V29.0622L90.1381 28.8394V30.6964L103.051 29.805V34.169L85.6029 34.2061Z" fill="white"/>
<path d="M116.329 33.7419L112.486 29.1923L108.479 33.9648L105.237 31.2907L110.21 25.014V23.8069H106.112V19.9072H119.134V23.8069H114.818V25.1254L119.681 30.9564L116.329 33.7419ZM108.516 19.2944V15.3204H116.839V19.2944H108.516ZM120.154 34.689V15.2461H124.744V33.8162L120.154 34.689Z" fill="white"/>
<path d="M127.421 27.6323L126.347 24.3269L135.071 22.7112V22.1913L127.895 22.9712V19.8143L135.071 19.2201V18.6815H127.786V15.3204H139.387V25.1254L127.421 27.6323ZM129.498 34.2061V27.8552L133.996 27.4281V30.3807L146.236 29.2665V34.2061H129.498ZM141.555 28.2637V15.2646H146.054V27.818L141.555 28.2637Z" fill="white"/>
<path d="M168.693 30.5663L156.198 34.6889L153.211 29.5636L165.214 25.6453V24.0854L172.172 23.584V25.1253L184.192 29.1922L181.187 34.7632L168.693 30.5663ZM172.172 20.4642V22.8597L165.269 23.4169V20.947L153.339 21.7827V16.3045L174.776 14.8932V10.3992H155.306V4.92102H181.606V14.4475L184.101 14.2804V19.5543L172.172 20.4642Z" fill="#231916"/>
<path d="M181.205 36.8802C180.982 36.8796 180.761 36.8419 180.55 36.7688L168.729 32.8691L156.89 36.7688C156.429 36.9182 155.931 36.904 155.478 36.7287C155.025 36.5535 154.643 36.2273 154.395 35.8032L151.372 30.6964C151.212 30.4182 151.115 30.1075 151.086 29.7866C151.058 29.4656 151.099 29.1422 151.208 28.8394C151.322 28.5331 151.502 28.2571 151.736 28.032C151.969 27.8069 152.249 27.6385 152.556 27.5395L163.065 24.104C163.037 23.9318 163.037 23.7562 163.065 23.584V23.2683L153.412 23.9554C153.119 23.971 152.826 23.9264 152.551 23.8243C152.276 23.7222 152.023 23.5647 151.809 23.3612C151.594 23.1574 151.423 22.91 151.307 22.6351C151.191 22.3601 151.132 22.0635 151.135 21.7642V16.286C151.134 15.7316 151.341 15.1978 151.713 14.7938C152.086 14.3899 152.596 14.1465 153.138 14.1133L172.572 12.832V12.572H155.233C154.663 12.572 154.116 12.3411 153.713 11.9301C153.31 11.5192 153.084 10.9619 153.084 10.3807V4.90251C153.084 4.61562 153.139 4.33157 153.248 4.06675C153.356 3.80193 153.514 3.56158 153.714 3.35958C153.914 3.15758 154.151 2.99792 154.412 2.88983C154.672 2.78174 154.952 2.72736 155.233 2.72982H181.533C181.814 2.72736 182.094 2.78174 182.354 2.88983C182.615 2.99792 182.852 3.15758 183.052 3.35958C183.252 3.56158 183.41 3.80193 183.518 4.06675C183.627 4.33157 183.682 4.61562 183.682 4.90251V12.1263H183.883C184.175 12.1031 184.469 12.1422 184.746 12.2412C185.023 12.3401 185.276 12.4968 185.49 12.7012C185.705 12.9056 185.875 13.1532 185.99 13.4283C186.105 13.7034 186.163 13.9999 186.159 14.299V19.5543C186.161 20.1057 185.956 20.637 185.588 21.0404C185.219 21.4439 184.714 21.6893 184.174 21.727L174.229 22.4327V22.7855C174.239 22.9092 174.239 23.0333 174.229 23.1569C174.239 23.2619 174.239 23.3676 174.229 23.4726L184.793 27.0381C185.093 27.1399 185.368 27.3074 185.597 27.5287C185.827 27.75 186.006 28.0199 186.123 28.3194C186.233 28.6203 186.279 28.9417 186.257 29.262C186.235 29.5823 186.146 29.8942 185.995 30.1764L182.972 35.7475C182.797 36.0749 182.543 36.3511 182.234 36.5494C181.925 36.7478 181.57 36.8617 181.205 36.8802ZM156.453 30.8078L157.2 32.0706L168.128 28.4865C168.562 28.3571 169.023 28.3571 169.458 28.4865L180.276 32.0706L181.169 30.4364L171.607 27.2052C171.301 27.1087 171.022 26.941 170.791 26.7154C170.561 26.4897 170.385 26.2124 170.277 25.9053L167.399 26.1281C167.32 26.5003 167.144 26.8442 166.892 27.1247C166.639 27.4053 166.318 27.6125 165.961 27.7252L156.453 30.8078ZM165.305 18.7558C165.849 18.7499 166.372 18.9635 166.762 19.3501C166.979 19.553 167.153 19.7997 167.272 20.0746C167.391 20.3495 167.453 20.6466 167.454 20.9471V21.0585L170.059 20.8542V20.4643C170.057 19.9129 170.262 19.3816 170.63 18.9781C170.999 18.5747 171.504 18.3293 172.044 18.2916L181.988 17.5859V16.6202H181.788C181.495 16.6369 181.202 16.5927 180.927 16.4906C180.651 16.3885 180.399 16.2304 180.185 16.026C179.97 15.8222 179.799 15.5749 179.683 15.2999C179.567 15.0249 179.509 14.7283 179.511 14.429V7.11236H157.528V8.22655H174.867C175.148 8.2241 175.427 8.2785 175.688 8.38659C175.949 8.49468 176.186 8.65434 176.386 8.85634C176.585 9.05834 176.744 9.29866 176.852 9.56349C176.96 9.82831 177.016 10.1124 177.016 10.3993V14.8932C177.017 15.4476 176.81 15.9814 176.438 16.3854C176.065 16.7893 175.555 17.0328 175.013 17.0659L155.579 18.3658V19.4429L165.214 18.7558H165.305Z" fill="#231916"/>
<path d="M189.292 23.714L187.671 18.6815L200.894 16.2488V15.4317L189.966 16.6202V11.8477L200.894 10.9377V10.1392H189.966V5.03244H207.56V19.8885L189.292 23.714ZM192.443 33.6861V24.0482L199.273 23.4169V27.8737L217.869 26.1838V33.6119L192.443 33.6861ZM210.657 24.6611V4.90247H217.632V23.9554L210.657 24.6611Z" fill="#231916"/>
<path d="M217.869 35.8589H192.37C191.805 35.8589 191.263 35.63 190.863 35.2225C190.464 34.815 190.239 34.2624 190.239 33.6862V25.7382L189.638 25.8496C189.128 25.9577 188.596 25.8695 188.146 25.6022C187.695 25.3348 187.357 24.907 187.198 24.4011L185.558 19.3686C185.46 19.0623 185.428 18.7383 185.462 18.4181C185.497 18.0979 185.598 17.7888 185.759 17.5116C185.915 17.2423 186.125 17.0101 186.377 16.8307C186.628 16.6514 186.914 16.5289 187.216 16.4717L187.817 16.3603V11.792C187.812 11.5263 187.855 11.2618 187.944 11.0121C187.812 10.7212 187.743 10.4043 187.744 10.0836V4.97678C187.744 4.39562 187.97 3.83827 188.373 3.42733C188.776 3.01638 189.323 2.78552 189.893 2.78552H207.487C207.773 2.78764 208.056 2.84786 208.318 2.96265C208.581 3.07744 208.819 3.24449 209.017 3.45405C209.215 3.20502 209.465 3.00411 209.748 2.86597C210.032 2.72783 210.342 2.65593 210.656 2.65552H217.632C218.202 2.65552 218.749 2.88641 219.152 3.29735C219.555 3.70829 219.781 4.26564 219.781 4.8468V23.8997C219.777 24.194 219.715 24.4844 219.599 24.754C219.907 25.1428 220.075 25.6282 220.073 26.1281V33.5562C220.091 33.8586 220.047 34.1615 219.943 34.4455C219.839 34.7294 219.678 34.9881 219.471 35.205C219.263 35.4218 219.014 35.592 218.738 35.7046C218.462 35.8172 218.166 35.8698 217.869 35.8589ZM194.592 31.4949H215.811V28.5608L199.546 30.0464C199.251 30.0751 198.954 30.0385 198.674 29.9391C198.394 29.8398 198.139 29.68 197.925 29.4708C197.702 29.2717 197.523 29.0263 197.4 28.7508C197.278 28.4753 197.215 28.1762 197.215 27.8737V25.7939L194.683 26.0353L194.592 31.4949ZM201.404 23.4541V25.4782L208.598 24.8282V21.8756C208.406 21.9854 208.196 22.0607 207.979 22.0984L201.404 23.4541ZM212.878 7.07521V22.247L215.428 21.9684V7.11236L212.878 7.07521ZM190.476 20.39L190.731 21.1885L205.411 18.1801V7.20522H192.133V7.94801H200.93C201.5 7.94801 202.047 8.17887 202.45 8.58981C202.853 9.00076 203.08 9.5581 203.08 10.1393V10.9378C203.077 11.485 202.874 12.0113 202.51 12.4134C202.146 12.8155 201.647 13.0641 201.113 13.1105L192.206 13.8719V14.1876L200.712 13.2591C201.011 13.2286 201.313 13.2624 201.599 13.3584C201.884 13.4543 202.147 13.6103 202.369 13.8162C202.59 14.0217 202.766 14.2711 202.889 14.549C203.011 14.8268 203.076 15.1273 203.08 15.4318V16.2488C203.073 16.7691 202.887 17.2703 202.554 17.6644C202.221 18.0584 201.762 18.32 201.258 18.403L190.476 20.39Z" fill="#231916"/>
<path d="M168.693 30.5663L156.198 34.6889L153.211 29.5636L165.214 25.6453V24.0854L172.172 23.584V25.1253L184.192 29.1922L181.187 34.7632L168.693 30.5663ZM172.172 20.4642V22.8597L165.269 23.4169V20.947L153.339 21.7827V16.3045L174.776 14.8932V10.3992H155.306V4.92102H181.606V14.4475L184.101 14.2804V19.5543L172.172 20.4642Z" fill="#F39800"/>
<path d="M189.292 23.714L187.671 18.6815L200.894 16.2488V15.4317L189.966 16.6202V11.8477L200.894 10.9377V10.1392H189.966V5.03244H207.56V19.8885L189.292 23.714ZM192.443 33.6861V24.0482L199.273 23.4169V27.8737L217.869 26.1838V33.6119L192.443 33.6861ZM210.657 24.6611V4.90247H217.632V23.9554L210.657 24.6611Z" fill="#F39800"/>
</g>
<defs>
<clipPath id="clip0_170_251">
<rect width="220" height="40" fill="white"/>
</clipPath>
</defs>
</svg>
