<svg width="90" height="90" fill="none" xmlns="http://www.w3.org/2000/svg"><path d="M34.155 23.04a23.228 23.228 0 01-4.68-.405 1.305 1.305 0 01-1.013-1.282 16.537 16.537 0 1133.076 0 1.28 1.28 0 01-1.26 1.305h-.113a12.712 12.712 0 01-10.867-6.21 18.519 18.519 0 01-15.143 6.592zm-3.082-2.79c3.194.473 12.78 1.08 17.347-7.177a1.282 1.282 0 011.755-.495c.294.166.512.44.608.765a9.473 9.473 0 008.122 6.592 13.95 13.95 0 00-27.832.315zm37.192 28.035a1.26 1.26 0 01-1.192-.855 10.598 10.598 0 00-9.878-6.93h-5.04a1.305 1.305 0 010-2.61h5.04a13.14 13.14 0 0112.262 8.617 1.283 1.283 0 01-.742 1.688 1.011 1.011 0 01-.45 0v.09zm-46.733.585a1.284 1.284 0 01-1.282-1.305 1.285 1.285 0 010-.405 13.05 13.05 0 0112.487-9.27H37.8a1.305 1.305 0 010 2.61h-4.995a10.552 10.552 0 00-10.058 7.47 1.26 1.26 0 01-1.215.9z" fill="#333"/><path d="M45 44.505a9.652 9.652 0 01-8.212-4.5 1.395 1.395 0 01-.203-.72v-3.33a16.853 16.853 0 01-8.123-14.49 1.306 1.306 0 011.283-1.305h.27c.54 0 12.983 2.767 18.405-6.998a1.282 1.282 0 011.755-.495c.294.167.512.441.608.765 1.98 6.75 9.134 6.75 9.472 6.75a1.305 1.305 0 011.282 1.305 16.943 16.943 0 01-8.1 14.49v3.33c0 .254-.07.503-.202.72a9.652 9.652 0 01-8.235 4.5v-.022zm-5.85-5.715a7.11 7.11 0 0011.723 0v-3.713a1.327 1.327 0 01.675-1.147 14.331 14.331 0 007.38-11.25 12.6 12.6 0 01-9.63-6.143c-5.423 7.065-14.49 6.75-18.203 6.435a14.243 14.243 0 007.38 11.048 1.327 1.327 0 01.675 1.147v3.623zM45 85.5a1.305 1.305 0 01-1.282-1.305V54a1.327 1.327 0 01.697-1.17 60.21 60.21 0 0129.25-7.313 1.305 1.305 0 011.26 1.305v12.78a1.282 1.282 0 11-2.565 0V48.105a57.689 57.689 0 00-26.078 6.75v27.292A59.849 59.849 0 0172.36 75.78v-9a1.282 1.282 0 112.565 0v10.305a1.328 1.328 0 01-.382.945 1.396 1.396 0 01-.923.36 57.374 57.374 0 00-28.035 7.043c-.187.066-.387.09-.585.067z" fill="#333"/><path d="M54.315 63a1.305 1.305 0 01-1.282-1.305 1.372 1.372 0 01.63-1.148 17.64 17.64 0 0110.755-2.654 1.306 1.306 0 01-.226 2.587 15.165 15.165 0 00-9.224 2.25 1.35 1.35 0 01-.653.18V63zm0 9a1.305 1.305 0 01-1.113-1.95 1.34 1.34 0 01.46-.48 17.82 17.82 0 0110.756-2.677 1.31 1.31 0 01-.226 2.61 15.322 15.322 0 00-9.224 2.25 1.148 1.148 0 01-.653.18V72zM45 85.5a1.214 1.214 0 01-.563-.135 56.723 56.723 0 00-28.012-6.3 1.305 1.305 0 01-.945-.36 1.26 1.26 0 01-.405-.945V66.713a1.282 1.282 0 011.283-1.305 1.305 1.305 0 011.282 1.305V76.5a59.154 59.154 0 0126.078 5.715V54.81a56.7 56.7 0 00-26.078-5.985v10.777a1.305 1.305 0 01-1.282 1.306 1.28 1.28 0 01-1.283-1.306V47.566a1.282 1.282 0 011.215-1.305 59.109 59.109 0 0129.25 6.547A1.305 1.305 0 0146.26 54v30.195A1.283 1.283 0 0145 85.5z" fill="#333"/><path d="M35.685 63.225a1.23 1.23 0 01-.63-.158 14.895 14.895 0 00-9.203-2.092 1.258 1.258 0 01-1.417-1.103 1.305 1.305 0 011.125-1.44 17.394 17.394 0 0110.755 2.318 1.35 1.35 0 01.495 1.8 1.305 1.305 0 01-1.125.652v.023zm0 9.067a1.53 1.53 0 01-.63-.157 14.895 14.895 0 00-9.203-2.093 1.26 1.26 0 01-1.417-1.125 1.305 1.305 0 011.125-1.44 17.257 17.257 0 0110.755 2.273 1.35 1.35 0 01.495 1.777 1.282 1.282 0 01-1.125.675v.09zM16.043 68.04a4.792 4.792 0 01-1.215-9.382L18 57.825a4.659 4.659 0 015.715 3.375 4.748 4.748 0 01-3.465 5.828l-3.082.832a4.256 4.256 0 01-1.193.18h.068zm2.52-7.695l-3.083.855a2.25 2.25 0 00-1.485 2.633 2.092 2.092 0 002.588 1.507l3.082-.833a2.25 2.25 0 00-1.102-4.162zm55.394 7.695a4.256 4.256 0 01-1.192-.18l-3.082-.832a4.747 4.747 0 01-3.308-5.828 4.657 4.657 0 015.715-3.375l3.082.833a4.792 4.792 0 013.308 5.85 4.702 4.702 0 01-4.5 3.532h-.023zm-3.082-7.762a2.25 2.25 0 00-.54 4.23l3.083.832a2.116 2.116 0 002.587-1.53 2.25 2.25 0 00-1.485-2.61l-3.082-.855a2.243 2.243 0 00-.563 0v-.067z" fill="#333"/></svg>