<svg width="90" height="90" fill="none" xmlns="http://www.w3.org/2000/svg"><path d="M79.942 63.653h-.134a1.305 1.305 0 010-2.61h.134a2.947 2.947 0 002.948-2.948V10.057a2.947 2.947 0 00-2.948-2.947H10.058a2.948 2.948 0 00-2.948 2.947v48.038a2.948 2.948 0 002.947 2.947h16.808a1.305 1.305 0 010 2.61H10.058A5.58 5.58 0 014.5 58.096V10.057A5.58 5.58 0 0110.057 4.5h69.885a5.58 5.58 0 015.558 5.557v48.038a5.58 5.58 0 01-5.558 5.558z" fill="#333"/><path d="M38.678 18.383h-17.19a1.305 1.305 0 010-2.61h17.19a1.305 1.305 0 110 2.61zm29.835 0h-17.19a1.305 1.305 0 110-2.61h17.19a1.305 1.305 0 110 2.61zm-38.431 9.675h-8.595a1.305 1.305 0 010-2.61h8.596a1.305 1.305 0 010 2.61zm30.038 0h-8.595a1.305 1.305 0 010-2.61h8.595a1.305 1.305 0 010 2.61zm-6.345 19.71a15.752 15.752 0 01-3.555-.338 1.305 1.305 0 01-1.012-1.26 12.173 12.173 0 0124.322 0 1.328 1.328 0 01-1.305 1.305 9.629 9.629 0 01-7.785-4.05 13.5 13.5 0 01-10.597 4.343h-.068zm-1.89-2.7c2.498.27 8.595.382 11.565-4.883a1.328 1.328 0 011.8-.495c.284.178.499.448.608.765a6.143 6.143 0 004.927 4.23 9.54 9.54 0 00-18.9.383zM24.93 59.153a1.282 1.282 0 01-1.192-.81l-3.758-9a5.611 5.611 0 1110.282-4.5l3.69 8.774a1.327 1.327 0 01-.652 1.71l-7.83 3.533c-.17.074-.354.113-.54.112v.18zm.18-14.94a2.97 2.97 0 00-2.97 2.97c.004.41.088.814.247 1.192l3.24 7.718 5.423-2.453-3.172-7.605a3.038 3.038 0 00-2.768-1.822z" fill="#333"/><path d="M80.032 85.5H45.428a3.083 3.083 0 01-3.083-3.082V68.511H32.31a6.435 6.435 0 01-5.895-3.915l-2.677-6.232a1.328 1.328 0 01.675-1.71l7.807-3.532a1.328 1.328 0 011.733.652l1.35 3.105a.72.72 0 00.652.427h20.25a1.305 1.305 0 010 2.61h-20.25a3.33 3.33 0 01-3.06-2.002l-.81-1.867L26.64 58.5l2.25 5.085a3.78 3.78 0 003.487 2.25h11.25a1.282 1.282 0 011.305 1.305v15.21a.473.473 0 00.473.473H80.01a.473.473 0 00.472-.473V68.153a8.324 8.324 0 00-8.302-8.303h-5.76a1.305 1.305 0 010-2.61h5.76a10.912 10.912 0 0110.912 10.913V82.35a3.083 3.083 0 01-3.082 3.083l.022.067z" fill="#333"/><path d="M72.45 85.5a1.303 1.303 0 01-1.328-1.305V67.5a1.327 1.327 0 012.633 0v16.718a1.304 1.304 0 01-1.305 1.304V85.5zM21.488 59.153a1.305 1.305 0 01-1.17-1.89L35.325 26.19a1.35 1.35 0 011.755-.63 1.304 1.304 0 01.608 1.755L22.657 58.5a1.328 1.328 0 01-1.17.742v-.09zm39.892 3.554a7.2 7.2 0 01-6.188-3.397 1.26 1.26 0 01-.202-.698v-2.115a12.105 12.105 0 01-5.782-10.327 1.305 1.305 0 011.305-1.305h.27c.382 0 9 1.867 12.667-4.703a1.328 1.328 0 011.8-.495c.284.178.499.448.608.765a6.75 6.75 0 006.344 4.5c.342.004.67.132.923.36.254.25.4.59.405.945a12.105 12.105 0 01-5.782 10.328v2.115a1.26 1.26 0 01-.203.697 7.178 7.178 0 01-6.165 3.398v-.068zm-3.78-4.5a4.704 4.704 0 006.592.968c.36-.276.678-.602.946-.968v-2.452a1.281 1.281 0 01.697-1.148 9.54 9.54 0 004.995-7.245 9.426 9.426 0 01-6.457-3.937 14.398 14.398 0 01-12.42 4.252 9.517 9.517 0 004.95 6.93 1.283 1.283 0 01.697 1.148v2.452z" fill="#333"/></svg>