<svg width="22" height="22" fill="none" xmlns="http://www.w3.org/2000/svg"><path d="M1.438 3.8H13.4v.48a1.44 1.44 0 001.44 1.44h1.92a1.44 1.44 0 001.44-1.44V3.8h2.236a.48.48 0 100-.96H18.2v-.48A1.44 1.44 0 0016.76.92h-1.92a1.44 1.44 0 00-1.44 1.44v.48H1.438a.48.48 0 000 .96zM14.36 2.36a.48.48 0 01.48-.48h1.92a.48.48 0 01.48.48v1.92a.48.48 0 01-.48.48h-1.92a.48.48 0 01-.48-.48V2.36zm6.144 15.84H16.28v-.48a1.44 1.44 0 00-1.44-1.44h-1.92a1.44 1.44 0 00-1.44 1.44v.48H1.448a.48.48 0 000 .96H11.48v.48a1.44 1.44 0 001.44 1.44h1.92a1.44 1.44 0 001.44-1.44v-.48h4.224a.48.48 0 100-.96zm-5.184 1.44a.48.48 0 01-.48.48h-1.92a.48.48 0 01-.48-.48v-1.92a.48.48 0 01.48-.48h1.92a.48.48 0 01.48.48v1.92zM7.16 13.4h1.92a1.44 1.44 0 001.44-1.44v-.48h10.032a.48.48 0 000-.96H10.52v-.48A1.44 1.44 0 009.08 8.6H7.16a1.44 1.44 0 00-1.44 1.44v.48H1.496a.48.48 0 000 .96H5.72v.48a1.44 1.44 0 001.44 1.44zm-.48-3.36a.48.48 0 01.48-.48h1.92a.48.48 0 01.48.48v1.92a.48.48 0 01-.48.48H7.16a.48.48 0 01-.48-.48v-1.92z" fill="#fff"/></svg>