<svg width="22" height="20" fill="none" xmlns="http://www.w3.org/2000/svg"><path d="M20.816 3.26h-.92V1.58a.41.41 0 00-.282-.39c-1.185-.387-2.772-.37-4.47.046A11.57 11.57 0 0011 3.153a11.57 11.57 0 00-4.144-1.916C5.158.82 3.57.804 2.386 1.19a.41.41 0 00-.283.39v1.68h-.92A1.142 1.142 0 00.044 4.4v13.546a1.142 1.142 0 001.14 1.141h19.633a1.142 1.142 0 001.141-1.14V4.397a1.142 1.142 0 00-1.14-1.139zM15.34 2.032c1.393-.341 2.733-.39 3.737-.143v14.166a9.11 9.11 0 00-3.933.187 11.82 11.82 0 00-3.734 1.62V3.866a10.686 10.686 0 013.93-1.834zM2.923 1.891c1.004-.249 2.344-.199 3.736.143 1.422.336 2.76.96 3.93 1.833v13.995a11.812 11.812 0 00-3.733-1.618 10.631 10.631 0 00-2.514-.325 6.955 6.955 0 00-1.419.137V1.89zM.863 17.945V4.398a.32.32 0 01.32-.32h.92v12.509a.41.41 0 00.538.39c1.026-.336 2.49-.313 4.019.062 1.064.26 2.084.673 3.027 1.227H1.184a.32.32 0 01-.32-.32zm20.274 0a.32.32 0 01-.32.321h-8.505a11.222 11.222 0 013.029-1.226c1.528-.375 2.992-.399 4.02-.063a.41.41 0 00.537-.39V4.08h.919a.32.32 0 01.32.32v13.546z" fill="#fff"/></svg>