<svg width="32" height="32" viewBox="0 0 32 32" fill="none" xmlns="http://www.w3.org/2000/svg">
<rect width="32" height="32" rx="16" fill="#E0E0E0"/>
<path d="M7.25 12.1387V22.9377C7.25068 23.5322 7.48789 24.1021 7.90959 24.5224C8.33128 24.9428 8.90303 25.1792 9.4994 25.1799H23.5002C24.0966 25.1792 24.6683 24.9428 25.09 24.5224C25.5117 24.1021 25.7489 23.5322 25.7496 22.9377V12.1387H7.25ZM15.8652 20.8132L15.8342 20.844C15.7613 20.9166 15.6624 20.9574 15.5593 20.9574C15.4562 20.9574 15.3574 20.9166 15.2844 20.844L15.2452 20.8049L15.2451 20.8049L14.3474 19.91L14.3473 19.9099L14.3081 19.8708C14.272 19.8348 14.2433 19.7921 14.2238 19.7451C14.2043 19.6981 14.1942 19.6477 14.1942 19.5968C14.1942 19.5459 14.2043 19.4955 14.2238 19.4485C14.2434 19.4014 14.272 19.3587 14.3081 19.3227L14.339 19.2919C14.8281 18.7991 15.1341 18.155 15.2067 17.4656C15.2824 16.7667 15.6208 16.086 16.1597 15.5489C16.7186 14.9917 17.4262 14.652 18.1522 14.5922C18.2278 14.586 18.3027 14.5829 18.3768 14.5829C18.9978 14.5829 19.5546 14.8007 19.9627 15.2074C20.4195 15.6627 20.6386 16.3037 20.5799 17.0122C20.52 17.7359 20.1791 18.4412 19.6202 18.9983C19.0813 19.5355 18.3984 19.8729 17.6973 19.9483C17.0057 20.0206 16.3595 20.3257 15.8652 20.8132ZM14.0723 21.9346C14.1508 22.0336 14.1885 22.1587 14.1774 22.2844C14.1664 22.4101 14.1076 22.5269 14.013 22.6107C13.9185 22.6946 13.7953 22.7392 13.6688 22.7355C13.5422 22.7318 13.4219 22.68 13.3325 22.5907C13.2831 22.5418 13.2447 22.4829 13.2199 22.4181C13.1951 22.3532 13.1845 22.2838 13.1887 22.2145C13.1904 22.1817 13.1855 22.1488 13.1741 22.118C13.1627 22.0871 13.1451 22.0589 13.1224 22.035C13.0997 22.0112 13.0724 21.9922 13.0421 21.9792C13.0118 21.9662 12.9791 21.9595 12.9461 21.9595C12.9419 21.9595 12.9375 21.9596 12.9332 21.9599C12.833 21.9653 12.7335 21.9404 12.6478 21.8882C12.5622 21.8361 12.4944 21.7593 12.4535 21.668C12.4126 21.5766 12.4005 21.4751 12.4188 21.3767C12.437 21.2783 12.4848 21.1878 12.5558 21.1171C12.6417 21.0314 12.7563 20.9801 12.8776 20.9731C12.999 20.9661 13.1187 21.0038 13.214 21.079C13.2607 21.1159 13.3194 21.1345 13.3789 21.131C13.4384 21.1276 13.4945 21.1025 13.5367 21.0605L14.1756 20.4236L14.7298 20.9761L14.0909 21.613C14.0487 21.655 14.0236 21.711 14.0201 21.7703C14.0167 21.8296 14.0353 21.8881 14.0723 21.9346Z" fill="white"/>
<path d="M22.1583 7.00001H10.8415C10.3698 6.99857 9.90858 7.13855 9.51775 7.40178C9.12691 7.665 8.82452 8.0393 8.64985 8.47606L7.36719 11.655H25.6335L24.3497 8.4755C24.175 8.0389 23.8726 7.66475 23.4818 7.40163C23.091 7.13852 22.6299 6.99859 22.1583 7.00001ZM18.9537 11.0356H14.0472C13.6265 11.0356 13.2231 10.869 12.9256 10.5725C12.6282 10.276 12.4611 9.87388 12.4611 9.45457C12.4611 9.03525 12.6282 8.6331 12.9256 8.3366C13.2231 8.0401 13.6265 7.87352 14.0472 7.87352H18.9537C19.3743 7.87352 19.7777 8.0401 20.0752 8.3366C20.3726 8.6331 20.5398 9.03525 20.5398 9.45457C20.5398 9.87388 20.3726 10.276 20.0752 10.5725C19.7777 10.869 19.3743 11.0356 18.9537 11.0356Z" fill="white"/>
</svg>
