<svg width="32" height="32" viewBox="0 0 32 32" fill="none" xmlns="http://www.w3.org/2000/svg">
<rect width="32" height="32" rx="16" fill="#E0E0E0"/>
<path d="M21.7623 19.1721C21.7618 18.736 21.5884 18.318 21.28 18.0097C20.9717 17.7013 20.5537 17.5279 20.1176 17.5273H12.8808C12.4447 17.5279 12.0267 17.7013 11.7183 18.0097C11.41 18.318 11.2365 18.736 11.236 19.1721C11.236 19.1842 11.2354 19.1962 11.234 19.2083L10.5781 25.1083C10.5801 25.1955 10.6167 25.2784 10.6798 25.3386C10.7429 25.3989 10.8274 25.4317 10.9146 25.4296C11.0019 25.4276 11.0848 25.3911 11.145 25.328C11.2053 25.2648 11.238 25.1804 11.236 25.0931C11.236 25.081 11.2367 25.069 11.238 25.0569L11.8959 19.152C11.9011 18.8941 12.0071 18.6485 12.1912 18.4678C12.3753 18.2871 12.6228 18.1857 12.8808 18.1852H20.1176C20.3759 18.1852 20.6239 18.2864 20.8084 18.4671C20.9929 18.6479 21.0992 18.8938 21.1044 19.152L21.7604 25.0569C21.7617 25.069 21.7623 25.081 21.7623 25.0931C21.7603 25.1804 21.7931 25.2648 21.8533 25.328C21.9136 25.3911 21.9965 25.4276 22.0837 25.4296C22.171 25.4317 22.2554 25.3989 22.3185 25.3386C22.3816 25.2784 22.4182 25.1955 22.4202 25.1083L21.7643 19.2083C21.763 19.1962 21.7623 19.1842 21.7623 19.1721Z" fill="white"/>
<path d="M22.0921 15.5526H13.2105C12.9517 15.5527 12.7033 15.4511 12.5187 15.2697C12.3341 15.0883 12.2282 14.8416 12.2237 14.5829L11.5658 7.68914C11.5685 7.60052 11.5536 7.51223 11.522 7.42941C11.4903 7.3466 11.4424 7.27092 11.3812 7.20679C11.3199 7.14265 11.2466 7.09134 11.1653 7.05584C11.0841 7.02033 10.9966 7.00135 10.9079 7C10.7334 7 10.5661 7.06931 10.4427 7.19269C10.3193 7.31607 10.25 7.48341 10.25 7.65789L10.9079 15.1954C10.9055 15.4134 10.9462 15.6297 11.0277 15.8319C11.1091 16.0341 11.2297 16.2183 11.3826 16.3737C11.5354 16.5292 11.7175 16.6529 11.9182 16.7378C12.119 16.8227 12.3346 16.8671 12.5526 16.8684H22.0921C22.2666 16.8684 22.4339 16.7991 22.5573 16.6757C22.6807 16.5523 22.75 16.385 22.75 16.2105C22.75 16.036 22.6807 15.8687 22.5573 15.7453C22.4339 15.6219 22.2666 15.5526 22.0921 15.5526Z" fill="white"/>
</svg>
