<svg width="32" height="32" viewBox="0 0 32 32" fill="none" xmlns="http://www.w3.org/2000/svg">
<rect width="32" height="32" rx="16" fill="#E0E0E0"/>
<path d="M10.25 25C11.9065 25 13.25 24.1043 13.25 23H7.25C7.25 24.1043 8.59353 25 10.25 25Z" fill="white"/>
<path d="M24.2293 15.5982L22.7532 13.1657H24.25V11.6242H21.8174L20.8814 10.0827H20.0387L18.6522 7H16.25V8.54147H17.9795L18.6727 10.0827H16.25V11.2388L18.6363 11.512C19.4579 13.377 20.0387 15.5885 20.3009 18C21.2081 16.788 22.6051 15.9066 24.2293 15.5982Z" fill="white"/>
<path d="M26.25 18.7502V17.0834H25.4167C22.7948 17.0834 20.6495 19.1006 20.4377 21.6666H17.0833L15.2083 16.6667H16.25V15H6.25V16.6667H7.242C6.61525 17.8239 6.25 19.0836 6.25 20.8334H13.75L15.4167 23.3333H20.7083C21.1777 24.3155 22.1722 25 23.3335 25C24.9438 25 26.25 23.6938 26.25 22.0833C26.25 20.6179 25.1642 19.4156 23.755 19.2091C24.2465 18.9249 24.808 18.7502 25.4167 18.7502H26.25Z" fill="white"/>
</svg>
